<svg width="49" height="49" viewBox="0 0 49 49" fill="none" xmlns="http://www.w3.org/2000/svg">
<rect width="48.0674" height="48.0674" rx="12.8456" fill="black"/>
<path d="M14.0205 13.5165C14.0205 12.4667 14.8715 11.6157 15.9213 11.6157H32.0781C33.1279 11.6157 33.9789 12.4667 33.9789 13.5165V19.1767C33.9789 20.2265 33.1279 21.0775 32.0781 21.0775H15.9213C14.8715 21.0775 14.0205 20.2265 14.0205 19.1767V13.5165Z" fill="white"/>
<path d="M27.0701 23.4535C27.9974 23.4535 28.577 24.4704 28.1133 25.284L22.1919 35.6737C21.7118 36.5161 20.4993 36.4788 20.0707 35.6084L18.9747 33.3831C18.8984 33.2283 18.8556 33.0587 18.8489 32.8858L18.7455 30.1989C18.7301 29.797 18.5201 29.4286 18.1842 29.2141L15.9391 27.7802C15.7946 27.6879 15.6711 27.5656 15.5768 27.4212L14.2225 25.3471C13.6927 24.5358 14.267 23.4535 15.2272 23.4535L27.0701 23.4535Z" fill="white"/>
</svg>
