<svg width="99" height="24" viewBox="0 0 99 24" fill="none" xmlns="http://www.w3.org/2000/svg">
<g clip-path="url(#clip0_22985_142043)">
<mask id="mask0_22985_142043" style="mask-type:luminance" maskUnits="userSpaceOnUse" x="0" y="0" width="99" height="24">
<path d="M98.0665 0.336914H0.481934V23.8159H98.0665V0.336914Z" fill="white"/>
</mask>
<g mask="url(#mask0_22985_142043)">
<path d="M39.757 8.40609C39.3639 7.46791 38.8108 6.65045 38.097 5.95471C37.3831 5.25896 36.5387 4.72038 35.564 4.33897C34.5883 3.95755 33.5327 3.76685 32.3972 3.76685H26.8345V19.2237H32.441C33.5622 19.2237 34.6065 19.033 35.5745 18.6516C36.5425 18.2701 37.3831 17.7316 38.097 17.0359C38.8099 16.3401 39.3639 15.5188 39.757 14.5729C40.1501 13.6271 40.3471 12.5978 40.3471 11.4833C40.3471 10.3688 40.1511 9.34334 39.757 8.40514V8.40609ZM36.6882 13.9011C36.2732 14.6707 35.6906 15.2639 34.9415 15.6817C34.1914 16.0996 33.3291 16.3085 32.3534 16.3085H29.8052V6.68112H32.3534C33.3291 6.68112 34.1877 6.89387 34.9301 7.3184C35.6726 7.74391 36.2551 8.32942 36.6777 9.07693C37.0994 9.82444 37.3107 10.4493 37.3107 11.4612C37.3107 12.4732 37.1032 13.1307 36.6882 13.9002V13.9011Z" fill="black"/>
<path d="M59.2427 19.2361V8.90157H62.0687V19.2361H59.2427ZM60.1431 3.76685H59.2427V6.61212H62.0687V3.76685H60.1422H60.1431Z" fill="black"/>
<path d="M74.371 11.3194C73.9462 10.5067 73.354 9.86465 72.5963 9.39412C71.8387 8.92358 70.9849 8.68784 70.0358 8.68784C69.3134 8.68784 68.6508 8.84119 68.0493 9.14788C67.6999 9.3261 67.3925 9.54174 67.125 9.79377V3.76685H64.3408V19.2361H67.1041V18.3191C67.3753 18.5845 67.6856 18.8088 68.0388 18.9908C68.6337 19.2975 69.3 19.4508 70.0368 19.4508C70.9858 19.4508 71.8358 19.2151 72.5869 18.7446C73.3378 18.274 73.9293 17.6319 74.3614 16.8193C74.7936 16.0066 75.0093 15.0933 75.0093 14.0804C75.0093 13.0674 74.7973 12.133 74.3717 11.3203L74.371 11.3194ZM71.8101 15.513C71.5903 15.9271 71.2894 16.2548 70.9068 16.4972C70.5242 16.7397 70.0777 16.8614 69.5675 16.8614C69.0573 16.8614 68.6042 16.7407 68.2073 16.4972C67.8104 16.2548 67.5058 15.9271 67.2935 15.513C67.0813 15.0991 66.9746 14.6218 66.9746 14.0794C66.9746 13.537 67.0813 13.0386 67.2935 12.6247C67.5058 12.2106 67.8065 11.8829 68.1968 11.6405C68.5861 11.398 69.0364 11.2763 69.5466 11.2763C70.0568 11.2763 70.506 11.398 70.8963 11.6405C71.2856 11.8829 71.5903 12.2145 71.8101 12.6352C72.03 13.0559 72.1394 13.5303 72.1394 14.0583C72.1394 14.6151 72.03 15.1 71.8101 15.513Z" fill="black"/>
<path d="M54.2515 8.90196V9.81999C53.9802 9.55453 53.6699 9.33031 53.3167 9.14827C52.7218 8.84158 52.0555 8.68823 51.3188 8.68823C50.3698 8.68823 49.5197 8.92398 48.7687 9.39451C48.0177 9.86504 47.4266 10.5071 46.9944 11.3198C46.5623 12.1325 46.3462 13.0458 46.3462 14.0587C46.3462 15.0717 46.5585 16.006 46.9839 16.8187C47.4085 17.6313 48.0006 18.2734 48.7582 18.744C49.5159 19.2145 50.3698 19.4503 51.3188 19.4503C52.0412 19.4503 52.7037 19.2969 53.3053 18.9902C53.6546 18.812 53.9621 18.5964 54.2296 18.3443V18.766C54.2296 19.5221 53.9744 20.1249 53.4643 20.5743C52.9541 21.0238 52.2744 21.2481 51.4244 21.2481C50.7305 21.2481 50.1384 21.1235 49.6501 20.8734C49.1609 20.6233 48.7182 20.2639 48.3222 19.7934L46.5375 21.5691C47.0477 22.2821 47.7169 22.8351 48.546 23.227C49.3751 23.619 50.3422 23.8155 51.4473 23.8155C52.5524 23.8155 53.5014 23.6046 54.3371 23.1839C55.1729 22.7632 55.8277 22.168 56.3028 21.3976C56.7777 20.6271 57.0148 19.7358 57.0148 18.7229V8.90196H54.2525H54.2515ZM53.1568 16.4976C52.7675 16.7401 52.3173 16.8618 51.807 16.8618C51.2969 16.8618 50.8476 16.7401 50.4573 16.4976C50.068 16.2552 49.7634 15.9236 49.5435 15.5029C49.3236 15.0822 49.2142 14.6078 49.2142 14.0798C49.2142 13.523 49.3236 13.0381 49.5435 12.6251C49.7634 12.211 50.0642 11.8833 50.4469 11.6409C50.8295 11.3984 51.2759 11.2766 51.7861 11.2766C52.2964 11.2766 52.7494 11.3974 53.1464 11.6409C53.5433 11.8833 53.8479 12.211 54.0601 12.6251C54.2724 13.039 54.379 13.5163 54.379 14.0587C54.379 14.6011 54.2724 15.0995 54.0601 15.5134C53.8479 15.9275 53.5471 16.2552 53.1568 16.4976Z" fill="black"/>
<path d="M85.9304 11.1709C85.5063 10.387 84.9105 9.77271 84.146 9.33086C83.3807 8.88909 82.5164 8.66772 81.553 8.66772C80.5324 8.66772 79.6123 8.90347 78.7906 9.374C77.9695 9.84454 77.3209 10.4866 76.8462 11.2993C76.3708 12.1119 76.1338 13.032 76.1338 14.0592C76.1338 15.0866 76.3752 16.0277 76.8565 16.8413C77.3386 17.6539 78.0004 18.296 78.8441 18.7666C79.6865 19.2371 80.6469 19.4728 81.7233 19.4728C82.559 19.4728 83.3308 19.3234 84.0403 19.0234C84.7484 18.7234 85.3654 18.275 85.8886 17.675L84.2304 16.0066C83.9185 16.3775 83.551 16.6487 83.1254 16.8193C82.6998 16.9908 82.2259 17.0761 81.7012 17.0761C81.1201 17.0761 80.6109 16.9554 80.1707 16.7119C79.7312 16.4694 79.3952 16.1168 79.1611 15.6529C79.0679 15.469 78.9946 15.2716 78.9381 15.0617L86.4396 15.0434C86.4961 14.8154 86.5321 14.6045 86.5467 14.4119C86.5607 14.2193 86.5673 14.0305 86.5673 13.8446C86.5673 12.846 86.3552 11.9548 85.9297 11.1699L85.9304 11.1709ZM80.0863 11.3846C80.4972 11.1421 80.9793 11.0204 81.531 11.0204C82.0549 11.0204 82.4944 11.1277 82.8488 11.3415C83.2024 11.5552 83.479 11.8695 83.6779 12.2825C83.7725 12.4819 83.8459 12.7042 83.8995 12.9496L78.9395 12.9639C78.9909 12.7713 79.0584 12.5911 79.1398 12.4215C79.36 11.972 79.6747 11.6261 80.0863 11.3837V11.3846Z" fill="black"/>
<path d="M97.4294 11.1709C97.0046 10.387 96.4088 9.77271 95.6443 9.33086C94.879 8.88909 94.0147 8.66772 93.0513 8.66772C92.0315 8.66772 91.1106 8.90347 90.2896 9.374C89.4678 9.84454 88.82 10.4866 88.3445 11.2993C87.8698 12.1119 87.6328 13.032 87.6328 14.0592C87.6328 15.0866 87.8735 16.0277 88.3548 16.8413C88.8368 17.6539 89.4994 18.296 90.3424 18.7666C91.1847 19.2371 92.1452 19.4728 93.2223 19.4728C94.058 19.4728 94.8299 19.3234 95.5386 19.0234C96.2474 18.7234 96.8637 18.275 97.3876 17.675L95.7294 16.0066C95.4168 16.3775 95.05 16.6487 94.6244 16.8193C94.1989 16.9908 93.7249 17.0761 93.2003 17.0761C92.6184 17.0761 92.1092 16.9554 91.6697 16.7119C91.2295 16.4694 90.8935 16.1168 90.6594 15.6529C90.5662 15.469 90.4928 15.2716 90.4371 15.0617L97.9386 15.0434C97.9944 14.8154 98.0311 14.6045 98.045 14.4119C98.0597 14.2193 98.0663 14.0305 98.0663 13.8446C98.0663 12.846 97.8535 11.9548 97.4287 11.1699L97.4294 11.1709ZM91.5846 11.3846C91.9962 11.1421 92.4776 11.0204 93.03 11.0204C93.5532 11.0204 93.9934 11.1277 94.3471 11.3415C94.7015 11.5552 94.9773 11.8695 95.1762 12.2825C95.2716 12.4819 95.3449 12.7042 95.3978 12.9496L90.4378 12.9639C90.4892 12.7713 90.5567 12.5911 90.6389 12.4215C90.8582 11.972 91.1737 11.6261 91.5846 11.3837V11.3846Z" fill="black"/>
<path d="M42.0566 19.2361V8.90157H44.8827V19.2361H42.0566ZM42.9571 3.76685H42.0566V6.61212H44.8827V3.76685H42.9562H42.9571Z" fill="black"/>
<path d="M0.481934 16.0202L7.45056 11.9368L0.481934 7.87354V16.0202Z" fill="#6B10EB"/>
<path d="M8.94198 14.4812L1.96191 18.5704L8.9667 22.6424L8.94198 14.4812Z" fill="#6B10EB"/>
<path d="M10.4452 0.33667L1.91455 5.29505L11.8654 11.0987L11.9016 22.6551L20.4084 17.7102V6.12784L10.4452 0.33667Z" fill="#6B10EB"/>
</g>
</g>
<defs>
<clipPath id="clip0_22985_142043">
<rect width="97.5846" height="23.479" fill="white" transform="translate(0.481934 0.336914)"/>
</clipPath>
</defs>
</svg>
