<svg width="149" height="36" viewBox="0 0 149 36" fill="none" xmlns="http://www.w3.org/2000/svg">
<g clip-path="url(#clip0_22985_142007)">
<path d="M43.6981 22.5802C42.2935 22.5802 41.1402 22.2489 40.2382 21.5868C39.336 20.913 38.8507 19.9538 38.7822 18.709H42.362C42.3962 19.1317 42.5219 19.4399 42.739 19.634C42.9559 19.8281 43.2356 19.9252 43.5781 19.9252C43.8865 19.9252 44.1378 19.851 44.3319 19.7026C44.5373 19.5427 44.6402 19.3257 44.6402 19.0518C44.6402 18.6977 44.4745 18.4237 44.1434 18.2295C43.8123 18.0354 43.2756 17.8185 42.5334 17.5787C41.7454 17.3161 41.106 17.0648 40.615 16.8249C40.1353 16.5738 39.7128 16.2141 39.3475 15.7459C38.9935 15.2663 38.8165 14.644 38.8165 13.8789C38.8165 13.1024 39.0106 12.4401 39.3989 11.892C39.7871 11.3325 40.3238 10.91 41.0089 10.6245C41.694 10.339 42.4705 10.1963 43.3383 10.1963C44.7429 10.1963 45.862 10.5274 46.6955 11.1897C47.5405 11.8406 47.9916 12.7598 48.0486 13.9474H44.4004C44.3889 13.582 44.2747 13.308 44.0578 13.1252C43.8522 12.9426 43.584 12.8512 43.2527 12.8512C43.0016 12.8512 42.796 12.9254 42.6361 13.0739C42.4762 13.2223 42.3962 13.4336 42.3962 13.7076C42.3962 13.936 42.482 14.1358 42.6532 14.3071C42.836 14.467 43.0586 14.6097 43.3212 14.7353C43.584 14.8495 43.9721 14.998 44.486 15.1807C45.251 15.4433 45.8791 15.7059 46.3701 15.9686C46.8725 16.2198 47.3007 16.5794 47.6547 17.0476C48.0202 17.5044 48.2029 18.0868 48.2029 18.7948C48.2029 19.5141 48.0202 20.1594 47.6547 20.7303C47.3007 21.3012 46.7811 21.7523 46.096 22.0834C45.4224 22.4146 44.6231 22.5802 43.6981 22.5802Z" fill="#1E90FF"/>
<path d="M51.4595 11.9602C50.8658 11.9602 50.3861 11.8003 50.0208 11.4806C49.6668 11.1494 49.4897 10.7384 49.4897 10.2473C49.4897 9.74491 49.6668 9.32812 50.0208 8.99697C50.3861 8.66582 50.8658 8.50024 51.4595 8.50024C52.0419 8.50024 52.5101 8.66582 52.8641 8.99697C53.2294 9.32812 53.4122 9.74491 53.4122 10.2473C53.4122 10.7384 53.2294 11.1494 52.8641 11.4806C52.5101 11.8003 52.0419 11.9602 51.4595 11.9602ZM53.121 12.8509V22.4599H49.7638V12.8509H53.121Z" fill="#1E90FF"/>
<path d="M67.5884 12.7654C68.7987 12.7654 69.7466 13.1308 70.4317 13.8616C71.1282 14.5924 71.4764 15.5916 71.4764 16.8591V22.46H68.1194V17.3044C68.1194 16.7905 67.9766 16.3909 67.6911 16.1054C67.4057 15.8199 67.0174 15.6772 66.5264 15.6772C66.0353 15.6772 65.6471 15.8199 65.3617 16.1054C65.0761 16.3909 64.9334 16.7905 64.9334 17.3044V22.46H61.5763V17.3044C61.5763 16.7905 61.4335 16.3909 61.148 16.1054C60.8741 15.8199 60.4915 15.6772 60.0005 15.6772C59.498 15.6772 59.1041 15.8199 58.8186 16.1054C58.533 16.3909 58.3904 16.7905 58.3904 17.3044V22.46H55.0332V12.851H58.3904V14.1185C58.6873 13.7074 59.0697 13.382 59.5379 13.1422C60.0176 12.891 60.5657 12.7654 61.1824 12.7654C61.8903 12.7654 62.5184 12.9195 63.0665 13.2278C63.626 13.5362 64.0656 13.9701 64.3854 14.5296C64.7279 14.0043 65.179 13.5818 65.7385 13.2621C66.2979 12.931 66.9146 12.7654 67.5884 12.7654Z" fill="#1E90FF"/>
<path d="M76.6727 14.1874C76.9353 13.742 77.3064 13.388 77.7859 13.1254C78.2656 12.8628 78.8309 12.7314 79.4817 12.7314C80.2468 12.7314 80.9375 12.9313 81.5542 13.3309C82.1823 13.7306 82.6732 14.3015 83.0273 15.0438C83.3926 15.786 83.5754 16.6539 83.5754 17.6473C83.5754 18.6407 83.3926 19.5143 83.0273 20.2679C82.6732 21.0102 82.1823 21.5811 81.5542 21.9808C80.9375 22.3805 80.2468 22.5803 79.4817 22.5803C78.8309 22.5803 78.2656 22.449 77.7859 22.1864C77.3177 21.9236 76.9467 21.5698 76.6727 21.1243V27.0508H73.3154V12.8513H76.6727V14.1874ZM80.1668 17.6473C80.1668 17.0192 79.9955 16.534 79.6529 16.1913C79.3218 15.8374 78.9108 15.6604 78.4197 15.6604C77.9287 15.6604 77.5118 15.8374 77.1693 16.1913C76.8382 16.5453 76.6727 17.0307 76.6727 17.6473C76.6727 18.2754 76.8382 18.7664 77.1693 19.1204C77.5118 19.4744 77.9287 19.6513 78.4197 19.6513C78.9108 19.6513 79.3218 19.4744 79.6529 19.1204C79.9955 18.7549 80.1668 18.2639 80.1668 17.6473Z" fill="#1E90FF"/>
<path d="M88.3152 9.78491V22.4599H84.958V9.78491H88.3152Z" fill="#1E90FF"/>
<path d="M91.9224 11.9602C91.3287 11.9602 90.849 11.8003 90.4837 11.4806C90.1296 11.1494 89.9526 10.7384 89.9526 10.2473C89.9526 9.74491 90.1296 9.32812 90.4837 8.99697C90.849 8.66582 91.3287 8.50024 91.9224 8.50024C92.5048 8.50024 92.973 8.66582 93.327 8.99697C93.6923 9.32812 93.8751 9.74491 93.8751 10.2473C93.8751 10.7384 93.6923 11.1494 93.327 11.4806C92.973 11.8003 92.5048 11.9602 91.9224 11.9602ZM93.5839 12.8509V22.4599H90.2267V12.8509H93.5839Z" fill="#1E90FF"/>
<path d="M99.589 22.5803C98.7212 22.5803 97.9447 22.4375 97.2596 22.152C96.5858 21.8552 96.0491 21.4556 95.6494 20.9531C95.2613 20.4392 95.0442 19.8627 94.9985 19.2231H98.253C98.2987 19.5314 98.4414 19.7712 98.6812 19.9424C98.921 20.1138 99.2179 20.1994 99.5719 20.1994C99.846 20.1994 100.063 20.1424 100.223 20.0282C100.383 19.914 100.463 19.7656 100.463 19.5828C100.463 19.3431 100.331 19.1661 100.069 19.0519C99.8059 18.9377 99.3721 18.8121 98.7668 18.6749C98.0817 18.538 97.5108 18.3838 97.054 18.2126C96.5973 18.0412 96.1976 17.7615 95.855 17.3732C95.5239 16.985 95.3582 16.4597 95.3582 15.7974C95.3582 15.2265 95.5124 14.7126 95.8208 14.2559C96.1291 13.7877 96.5802 13.4166 97.1739 13.1425C97.7792 12.8685 98.5042 12.7314 99.3492 12.7314C100.605 12.7314 101.593 13.0397 102.312 13.6564C103.032 14.273 103.449 15.0837 103.563 16.0886H100.531C100.474 15.7803 100.337 15.5462 100.12 15.3863C99.9145 15.2151 99.6347 15.1294 99.2807 15.1294C99.0066 15.1294 98.7954 15.1808 98.6469 15.2836C98.51 15.3863 98.4414 15.5291 98.4414 15.7118C98.4414 15.9402 98.5727 16.1172 98.8354 16.2428C99.098 16.357 99.5205 16.4768 100.103 16.6025C100.799 16.7509 101.376 16.9165 101.833 17.0991C102.301 17.282 102.706 17.5788 103.049 17.9898C103.403 18.3896 103.58 18.9377 103.58 19.6341C103.58 20.1937 103.414 20.6962 103.083 21.1415C102.763 21.5869 102.301 21.9408 101.696 22.2035C101.102 22.4547 100.4 22.5803 99.589 22.5803Z" fill="#1E90FF"/>
<path d="M117.786 12.7654C118.996 12.7654 119.944 13.1308 120.629 13.8616C121.326 14.5924 121.674 15.5916 121.674 16.8591V22.46H118.317V17.3044C118.317 16.7905 118.174 16.3909 117.888 16.1054C117.603 15.8199 117.215 15.6772 116.724 15.6772C116.233 15.6772 115.844 15.8199 115.559 16.1054C115.273 16.3909 115.131 16.7905 115.131 17.3044V22.46H111.774V17.3044C111.774 16.7905 111.631 16.3909 111.345 16.1054C111.071 15.8199 110.689 15.6772 110.198 15.6772C109.695 15.6772 109.301 15.8199 109.016 16.1054C108.73 16.3909 108.588 16.7905 108.588 17.3044V22.46H105.23V12.851H108.588V14.1185C108.885 13.7074 109.267 13.382 109.735 13.1422C110.215 12.891 110.763 12.7654 111.38 12.7654C112.088 12.7654 112.716 12.9195 113.264 13.2278C113.823 13.5362 114.263 13.9701 114.583 14.5296C114.925 14.0043 115.376 13.5818 115.936 13.2621C116.495 12.931 117.112 12.7654 117.786 12.7654Z" fill="#1E90FF"/>
<path d="M122.965 17.6473C122.965 16.6539 123.142 15.786 123.496 15.0438C123.862 14.3015 124.353 13.7306 124.969 13.3309C125.597 12.9313 126.294 12.7314 127.059 12.7314C127.721 12.7314 128.292 12.8628 128.772 13.1254C129.251 13.388 129.622 13.742 129.885 14.1874V12.8513H133.242V22.4603H129.885V21.1243C129.622 21.5698 129.246 21.9236 128.755 22.1864C128.275 22.449 127.71 22.5803 127.059 22.5803C126.294 22.5803 125.597 22.3805 124.969 21.9808C124.353 21.5811 123.862 21.0102 123.496 20.2679C123.142 19.5143 122.965 18.6407 122.965 17.6473ZM129.885 17.6473C129.885 17.0307 129.714 16.5453 129.371 16.1913C129.04 15.8374 128.629 15.6604 128.138 15.6604C127.636 15.6604 127.219 15.8374 126.888 16.1913C126.557 16.534 126.391 17.0192 126.391 17.6473C126.391 18.2639 126.557 18.7549 126.888 19.1204C127.219 19.4744 127.636 19.6513 128.138 19.6513C128.629 19.6513 129.04 19.4744 129.371 19.1204C129.714 18.7664 129.885 18.2754 129.885 17.6473Z" fill="#1E90FF"/>
<path d="M138.512 14.5467C138.889 13.9986 139.346 13.5647 139.883 13.245C140.419 12.9252 140.996 12.7654 141.613 12.7654V16.3452H140.671C139.94 16.3452 139.398 16.488 139.044 16.7734C138.69 17.0589 138.512 17.5556 138.512 18.2636V22.46H135.155V12.851H138.512V14.5467Z" fill="#1E90FF"/>
<path d="M148.486 19.5995V22.4599H147.03C144.575 22.4599 143.347 21.244 143.347 18.8117V15.6429H142.166V12.8509H143.347V10.5215H146.722V12.8509H148.469V15.6429H146.722V18.863C146.722 19.1257 146.779 19.3141 146.893 19.4283C147.019 19.5425 147.224 19.5995 147.51 19.5995H148.486Z" fill="#1E90FF"/>
<path fill-rule="evenodd" clip-rule="evenodd" d="M8.40594 22.6775C7.91551 22.6775 7.71808 23.014 7.71808 23.1934C7.71808 23.373 7.91551 23.7093 8.40594 23.7093H24.7428C26.3573 23.7093 27.6662 25.0182 27.6662 26.6327C27.6662 28.1309 26.5392 29.366 25.0867 29.5361V29.5561L12.6191 29.4702L10.8994 27.1486H24.7428C25.0277 27.1486 25.2587 26.9177 25.2587 26.6327C25.2587 26.3478 25.0277 26.1168 24.7428 26.1168H8.40594C6.80694 26.1168 5.31055 24.9134 5.31055 23.1934C5.31055 21.4735 6.80694 20.27 8.40594 20.27H22.98L24.7428 22.6775H8.40594Z" fill="#1E90FF"/>
<path d="M5.31063 15.7994C5.0257 15.7994 4.79474 16.0303 4.79474 16.3153C4.79474 16.6002 5.0257 16.8312 5.31063 16.8312H29.7298C31.3443 16.8312 32.6533 18.1401 32.6533 19.7546C32.6533 21.3692 31.3443 22.678 29.7298 22.678H26.0325L24.227 20.2705H29.7298C30.0148 20.2705 30.2457 20.0395 30.2457 19.7546C30.2457 19.4696 30.0148 19.2387 29.7298 19.2387H5.31063C3.69607 19.2387 2.38721 17.9299 2.38721 16.3153C2.38721 14.7007 3.69607 13.3918 5.31063 13.3918H8.74995L10.4696 15.7994H5.31063Z" fill="#E5E5E5"/>
<path fill-rule="evenodd" clip-rule="evenodd" d="M10.2979 8.92047C10.013 8.92047 9.78203 9.15144 9.78203 9.43636C9.78203 9.72129 10.013 9.95226 10.2979 9.95226H26.8067C28.4212 9.95226 29.7301 11.2611 29.7301 12.8757C29.7301 14.4325 28.5132 15.7051 26.9786 15.7941V15.7991H11.7596L10.04 13.3916H26.8067C27.0916 13.3916 27.3226 13.1606 27.3226 12.8757C27.3226 12.5908 27.0916 12.3598 26.8067 12.3598H10.2979C8.68337 12.3598 7.37451 11.0509 7.37451 9.43636C7.37451 7.8218 8.68337 6.51294 10.2979 6.51294H22.6795L24.3992 8.92047H10.2979Z" fill="#1E90FF"/>
</g>
<defs>
<clipPath id="clip0_22985_142007">
<rect width="148.119" height="34.2402" fill="white" transform="translate(0.399902 0.818848)"/>
</clipPath>
</defs>
</svg>
