<svg width="117" height="32" viewBox="0 0 117 32" fill="none" xmlns="http://www.w3.org/2000/svg">
<path d="M23.5711 10.5495H17.2742V13.2678C17.9 12.9027 18.6171 12.7202 19.4253 12.7202C20.351 12.7202 21.1071 13.007 21.6938 13.5807C22.2935 14.1543 22.5933 14.9495 22.5933 15.9664C22.5933 16.5401 22.4825 17.1789 22.2609 17.8829C22.0523 18.5869 21.7068 19.3039 21.2245 20.034L18.9365 18.7629C19.2363 18.3587 19.484 17.9415 19.6796 17.5113C19.8751 17.0811 19.9729 16.6378 19.9729 16.1815C19.9729 15.6992 19.8686 15.3602 19.66 15.1647C19.4645 14.9691 19.2037 14.8713 18.8778 14.8713C18.5779 14.8713 17.9978 15.1451 17.9978 15.1451C17.9978 15.1451 17.0828 15.5232 16.8742 15.7318V20.562H14.6538V18.0784C14.2236 18.3261 13.7868 18.5152 13.3436 18.6455C12.9133 18.7759 12.4114 18.8411 11.8378 18.8411C11.1208 18.8411 10.4624 18.7107 9.86269 18.45C9.27602 18.1762 8.80669 17.7786 8.45469 17.2571C8.10269 16.7356 7.92668 16.0838 7.92668 15.3015C7.92668 14.5715 8.10269 13.9457 8.45469 13.4242C8.80669 12.8897 9.29557 12.479 9.92135 12.1922C10.5471 11.8924 11.2707 11.7424 12.092 11.7424C12.4571 11.7424 12.8221 11.7555 13.1871 11.7815C13.5652 11.8076 13.8585 11.8533 14.0671 11.9184L13.8716 14.0891C13.4544 13.9848 12.9916 13.9327 12.4831 13.9327C11.8704 13.9327 11.3945 14.0565 11.0556 14.3042C10.7166 14.5389 10.5471 14.8713 10.5471 15.3015C10.5471 15.823 10.7101 16.1815 11.036 16.3771C11.3619 16.5727 11.7139 16.6704 12.092 16.6704C12.6396 16.6704 13.1219 16.5466 13.5391 16.2989C13.9693 16.0512 14.3409 15.7644 14.6538 15.4384V10.5495H7.20312V8.39844H23.5711V10.5495Z" fill="#AAAAAA"/>
<path d="M19.7129 25.1184C19.374 25.2879 18.9698 25.4444 18.5005 25.5878C18.0181 25.7312 17.4445 25.8029 16.7796 25.8029C16.1277 25.8029 15.5476 25.679 15.0392 25.4313C14.5307 25.1967 14.1331 24.8642 13.8463 24.434C13.5464 24.0168 13.3965 23.5279 13.3965 22.9673C13.3965 22.0287 13.7289 21.279 14.3938 20.7184C15.0457 20.1709 15.5843 19.858 16.8098 19.7798L17.0445 21.794C16.3796 21.8331 16.3233 21.957 16.0756 22.1656C15.8279 22.3872 15.704 22.6414 15.704 22.9282C15.704 23.5279 16.1017 23.8278 16.8969 23.8278C17.1968 23.8278 17.5032 23.7821 17.816 23.6909C18.1289 23.5996 18.507 23.4432 18.9503 23.2215L19.7129 25.1184Z" fill="#AAAAAA"/>
<path d="M35.9824 22H33.0469V11.0225H35.9824V15.8828L40.0869 11.0225H43.251V11.2158L39.3047 15.918L43.4268 21.7979V22H40.1221L37.3975 18.2207L35.9824 19.9082V22ZM47.4082 16.6562H49.0606C49.6699 16.6562 50.1387 16.5244 50.4668 16.2607C50.8008 15.9971 50.9678 15.6162 50.9678 15.1182C50.9678 14.6201 50.8008 14.2334 50.4668 13.958C50.1387 13.6768 49.6699 13.5361 49.0606 13.5361H47.4082V16.6562ZM54.2285 22H51.0908L48.9024 18.9414H47.4082V22H44.4727V11.0225H49.0254C50.5723 11.0225 51.7647 11.3799 52.6026 12.0947C53.4463 12.8037 53.8682 13.8145 53.8682 15.127C53.8682 16.7324 53.1709 17.8428 51.7764 18.458L54.2285 21.7627V22ZM65.0742 11.0225V16.7617C65.0742 18.584 64.6612 19.9404 63.835 20.8311C63.0088 21.7158 61.752 22.1582 60.0645 22.1582C58.377 22.1582 57.1201 21.7129 56.294 20.8223C55.4678 19.9316 55.0547 18.5781 55.0547 16.7617V11.0225H57.9815V16.7617C57.9815 18.6074 58.6758 19.5303 60.0645 19.5303C61.4531 19.5303 62.1446 18.6074 62.1387 16.7617V11.0225H65.0742ZM75.709 13.6855H72.3076V22H69.3721V13.6855H65.9883V11.0225H75.709V13.6855ZM79.7344 16.6562H81.3867C81.9961 16.6562 82.4649 16.5244 82.793 16.2607C83.127 15.9971 83.294 15.6162 83.294 15.1182C83.294 14.6201 83.127 14.2334 82.793 13.958C82.4649 13.6768 81.9961 13.5361 81.3867 13.5361H79.7344V16.6562ZM86.5547 22H83.417L81.2285 18.9414H79.7344V22H76.7989V11.0225H81.3516C82.8985 11.0225 84.0908 11.3799 84.9287 12.0947C85.7725 12.8037 86.1944 13.8145 86.1944 15.127C86.1944 16.7324 85.4971 17.8428 84.1026 18.458L86.5547 21.7627V22ZM90.51 22H87.5742V11.0225H90.51V22ZM102.665 22L102.533 16.208V15.6982L99.958 22H98.2L95.643 15.6982V16.1289L95.502 22H92.549L92.98 11.0225H96.258L98.807 16.999C98.9 17.251 98.991 17.5264 99.079 17.8252C99.161 17.5264 99.252 17.251 99.352 16.999L101.909 11.0225H105.179L105.609 22H102.665Z" fill="#AAAAAA"/>
</svg>
